# xmcd CD database file
#
# Track frame offsets:
#	150
#	17400
#	46500
#	58350
#	77700
#	91875
#	104100
#	122700
#	136575
#	146925
#	156300
#	190427
#	201000
#	208725
#	222150
#
# Disc length: 3181 seconds
#
# Revision: 0
# Processed by: cddbd v1.4PL0 Copyright (c) Steve Scherf et al.
# Submitted via: Feurio! 1.65 - http://www.feurio.com
#
DISCID=db0c6b0f
DTITLE=Eddie "One String" Jones and Eddie Hazelton - One String Blues
DYEAR=1964
DGENRE=Blues
TTITLE0=One String Three Quarter Banjo Picker
TTITLE1=Rolling And Tumbling Blues
TTITLE2=Walk With Me Lord
TTITLE3=Come Back Baby
TTITLE4=John Henry
TTITLE5=I'll Be Your Chauffeur
TTITLE6=It's Raining Here
TTITLE7=Baby Please Don't Go
TTITLE8=The Dozens
TTITLE9=Mocking The Train, Mocking The Dogs
TTITLE10=Poor Boy Travelling From Town To Town
TTITLE11=Hard Rock Is My Pillow
TTITLE12=Motherless Children Have A Hard Time
TTITLE13=Throw A Poor Dog A Bone (And How Blind Boy Fuller Learned To Play)
TTITLE14=Red River Blues
EXTD=ARD Takoma Records CDTAK 1023
EXTT0=
EXTT1=
EXTT2=
EXTT3=
EXTT4=
EXTT5=
EXTT6=
EXTT7=
EXTT8=
EXTT9=
EXTT10=
EXTT11=
EXTT12=
EXTT13=
EXTT14=
PLAYORDER=
